<mxfile host="app.diagrams.net" modified="2020-05-02T16:06:30.690Z" agent="5.0 (Macintosh; Intel Mac OS X 10_13_6) AppleWebKit/537.36 (KHTML, like Gecko) Chrome/81.0.4044.129 Safari/537.36" etag="6mtWOQ_CjqsgzIznqLSZ" version="13.0.5" type="github">
  <diagram id="8eP9ZmY5mqfK-5PQyOfs" name="Page-1">
    <mxGraphModel dx="1020" dy="636" grid="1" gridSize="10" guides="1" tooltips="1" connect="1" arrows="1" fold="1" page="1" pageScale="1" pageWidth="3300" pageHeight="4681" math="0" shadow="0">
      <root>
        <mxCell id="0" />
        <mxCell id="1" parent="0" />
        <mxCell id="NuxejTGCEdP42fsOLrKP-1" value="" style="endArrow=classic;html=1;fillColor=#0050ef;strokeColor=#001DBC;" edge="1" parent="1">
          <mxGeometry width="50" height="50" relative="1" as="geometry">
            <mxPoint x="155" y="214.5" as="sourcePoint" />
            <mxPoint x="235" y="214.5" as="targetPoint" />
          </mxGeometry>
        </mxCell>
        <mxCell id="NuxejTGCEdP42fsOLrKP-2" value="User open website" style="text;html=1;resizable=0;autosize=1;align=center;verticalAlign=middle;points=[];fillColor=none;strokeColor=none;rounded=0;" vertex="1" parent="1">
          <mxGeometry x="120" y="192" width="110" height="20" as="geometry" />
        </mxCell>
        <mxCell id="NuxejTGCEdP42fsOLrKP-3" value="" style="rounded=0;whiteSpace=wrap;html=1;" vertex="1" parent="1">
          <mxGeometry x="235" y="160" width="5" height="690" as="geometry" />
        </mxCell>
        <mxCell id="NuxejTGCEdP42fsOLrKP-4" value="" style="rounded=0;whiteSpace=wrap;html=1;" vertex="1" parent="1">
          <mxGeometry x="470" y="160" width="5" height="690" as="geometry" />
        </mxCell>
        <mxCell id="NuxejTGCEdP42fsOLrKP-5" value="" style="endArrow=classic;html=1;exitX=1;exitY=0.5;exitDx=0;exitDy=0;entryX=1;entryY=0.5;entryDx=0;entryDy=0;fillColor=#0050ef;strokeColor=#001DBC;" edge="1" parent="1">
          <mxGeometry width="50" height="50" relative="1" as="geometry">
            <mxPoint x="240" y="215" as="sourcePoint" />
            <mxPoint x="475" y="215" as="targetPoint" />
          </mxGeometry>
        </mxCell>
        <mxCell id="NuxejTGCEdP42fsOLrKP-9" value="SERVER ADS" style="text;html=1;resizable=0;autosize=1;align=center;verticalAlign=middle;points=[];fillColor=none;strokeColor=none;rounded=0;" vertex="1" parent="1">
          <mxGeometry x="427.5" y="120" width="90" height="20" as="geometry" />
        </mxCell>
        <mxCell id="NuxejTGCEdP42fsOLrKP-11" value="" style="rounded=0;whiteSpace=wrap;html=1;" vertex="1" parent="1">
          <mxGeometry x="720" y="160" width="5" height="690" as="geometry" />
        </mxCell>
        <mxCell id="NuxejTGCEdP42fsOLrKP-12" value="DB" style="text;html=1;resizable=0;autosize=1;align=center;verticalAlign=middle;points=[];fillColor=none;strokeColor=none;rounded=0;" vertex="1" parent="1">
          <mxGeometry x="707.5" y="120" width="30" height="20" as="geometry" />
        </mxCell>
        <mxCell id="NuxejTGCEdP42fsOLrKP-13" value="PLAYFUN.VN" style="text;html=1;resizable=0;autosize=1;align=center;verticalAlign=middle;points=[];fillColor=none;strokeColor=none;rounded=0;" vertex="1" parent="1">
          <mxGeometry x="192.5" y="120" width="90" height="20" as="geometry" />
        </mxCell>
        <mxCell id="NuxejTGCEdP42fsOLrKP-25" value="" style="endArrow=classic;html=1;entryX=1;entryY=0.5;entryDx=0;entryDy=0;fillColor=#0050ef;strokeColor=#001DBC;" edge="1" parent="1">
          <mxGeometry width="50" height="50" relative="1" as="geometry">
            <mxPoint x="710" y="235" as="sourcePoint" />
            <mxPoint x="485" y="235" as="targetPoint" />
          </mxGeometry>
        </mxCell>
        <mxCell id="NuxejTGCEdP42fsOLrKP-27" value="User infomation&lt;br&gt;Area to Display" style="text;html=1;resizable=0;autosize=1;align=left;verticalAlign=middle;points=[];fillColor=none;strokeColor=none;rounded=0;" vertex="1" parent="1">
          <mxGeometry x="310" y="182" width="100" height="30" as="geometry" />
        </mxCell>
        <mxCell id="NuxejTGCEdP42fsOLrKP-29" value="Get all ads in all campaign" style="text;html=1;resizable=0;autosize=1;align=left;verticalAlign=middle;points=[];fillColor=none;strokeColor=none;rounded=0;" vertex="1" parent="1">
          <mxGeometry x="510" y="190" width="160" height="20" as="geometry" />
        </mxCell>
        <mxCell id="NuxejTGCEdP42fsOLrKP-30" value="Filter user infomation with ads rule" style="text;html=1;resizable=0;autosize=1;align=left;verticalAlign=middle;points=[];fillColor=none;strokeColor=none;rounded=0;" vertex="1" parent="1">
          <mxGeometry x="510" y="207" width="200" height="20" as="geometry" />
        </mxCell>
        <mxCell id="NuxejTGCEdP42fsOLrKP-32" value="" style="endArrow=classic;html=1;entryX=1;entryY=0.5;entryDx=0;entryDy=0;fillColor=#0050ef;strokeColor=#001DBC;" edge="1" parent="1">
          <mxGeometry width="50" height="50" relative="1" as="geometry">
            <mxPoint x="470" y="258" as="sourcePoint" />
            <mxPoint x="245" y="258" as="targetPoint" />
          </mxGeometry>
        </mxCell>
        <mxCell id="NuxejTGCEdP42fsOLrKP-33" value="Url template" style="text;html=1;resizable=0;autosize=1;align=left;verticalAlign=middle;points=[];fillColor=none;strokeColor=none;rounded=0;" vertex="1" parent="1">
          <mxGeometry x="260" y="260" width="80" height="20" as="geometry" />
        </mxCell>
        <mxCell id="NuxejTGCEdP42fsOLrKP-35" value="" style="rounded=0;whiteSpace=wrap;html=1;" vertex="1" parent="1">
          <mxGeometry x="902.5" y="160" width="5" height="690" as="geometry" />
        </mxCell>
        <mxCell id="NuxejTGCEdP42fsOLrKP-36" value="CDN vega" style="text;html=1;resizable=0;autosize=1;align=center;verticalAlign=middle;points=[];fillColor=none;strokeColor=none;rounded=0;" vertex="1" parent="1">
          <mxGeometry x="870" y="120" width="70" height="20" as="geometry" />
        </mxCell>
        <mxCell id="NuxejTGCEdP42fsOLrKP-37" value="" style="endArrow=classic;html=1;entryX=1;entryY=0.5;entryDx=0;entryDy=0;fillColor=#0050ef;strokeColor=#001DBC;" edge="1" parent="1">
          <mxGeometry width="50" height="50" relative="1" as="geometry">
            <mxPoint x="900" y="350" as="sourcePoint" />
            <mxPoint x="240" y="350" as="targetPoint" />
          </mxGeometry>
        </mxCell>
        <mxCell id="NuxejTGCEdP42fsOLrKP-38" value="https://vega.cdn/temlate1?banner=ftp://vega.ftp/ads1.jpg&amp;amp;bottom=ftp://vega.ftp/bottom.jpg&amp;amp;destinationUrl=..." style="text;html=1;resizable=0;autosize=1;align=left;verticalAlign=middle;points=[];fillColor=none;strokeColor=none;rounded=0;" vertex="1" parent="1">
          <mxGeometry x="260" y="280" width="590" height="20" as="geometry" />
        </mxCell>
        <mxCell id="NuxejTGCEdP42fsOLrKP-39" value="" style="endArrow=classic;html=1;entryX=1;entryY=0.5;entryDx=0;entryDy=0;fillColor=#0050ef;strokeColor=#001DBC;" edge="1" parent="1">
          <mxGeometry width="50" height="50" relative="1" as="geometry">
            <mxPoint x="900" y="380" as="sourcePoint" />
            <mxPoint x="240" y="380" as="targetPoint" />
          </mxGeometry>
        </mxCell>
        <mxCell id="NuxejTGCEdP42fsOLrKP-40" value="HTML" style="text;html=1;resizable=0;autosize=1;align=left;verticalAlign=middle;points=[];fillColor=none;strokeColor=none;rounded=0;" vertex="1" parent="1">
          <mxGeometry x="285" y="330" width="50" height="20" as="geometry" />
        </mxCell>
        <mxCell id="NuxejTGCEdP42fsOLrKP-41" value="assets" style="text;html=1;resizable=0;autosize=1;align=left;verticalAlign=middle;points=[];fillColor=none;strokeColor=none;rounded=0;" vertex="1" parent="1">
          <mxGeometry x="282.5" y="360" width="50" height="20" as="geometry" />
        </mxCell>
        <mxCell id="NuxejTGCEdP42fsOLrKP-42" value="" style="whiteSpace=wrap;html=1;aspect=fixed;" vertex="1" parent="1">
          <mxGeometry x="135" y="330" width="80" height="80" as="geometry" />
        </mxCell>
        <mxCell id="NuxejTGCEdP42fsOLrKP-43" value="IFrame" style="text;html=1;strokeColor=none;fillColor=none;align=center;verticalAlign=middle;whiteSpace=wrap;rounded=0;" vertex="1" parent="1">
          <mxGeometry x="135" y="310" width="40" height="20" as="geometry" />
        </mxCell>
        <mxCell id="NuxejTGCEdP42fsOLrKP-44" value="" style="endArrow=classic;html=1;fillColor=#0050ef;strokeColor=#001DBC;" edge="1" parent="1">
          <mxGeometry width="50" height="50" relative="1" as="geometry">
            <mxPoint x="161" y="974.5" as="sourcePoint" />
            <mxPoint x="241" y="974.5" as="targetPoint" />
          </mxGeometry>
        </mxCell>
        <mxCell id="NuxejTGCEdP42fsOLrKP-45" value="Create campaign A" style="text;html=1;resizable=0;autosize=1;align=center;verticalAlign=middle;points=[];fillColor=none;strokeColor=none;rounded=0;" vertex="1" parent="1">
          <mxGeometry x="121" y="952" width="120" height="20" as="geometry" />
        </mxCell>
        <mxCell id="NuxejTGCEdP42fsOLrKP-46" value="" style="rounded=0;whiteSpace=wrap;html=1;" vertex="1" parent="1">
          <mxGeometry x="241" y="920" width="5" height="870" as="geometry" />
        </mxCell>
        <mxCell id="NuxejTGCEdP42fsOLrKP-47" value="" style="rounded=0;whiteSpace=wrap;html=1;" vertex="1" parent="1">
          <mxGeometry x="476" y="920" width="5" height="880" as="geometry" />
        </mxCell>
        <mxCell id="NuxejTGCEdP42fsOLrKP-48" value="" style="endArrow=classic;html=1;exitX=1;exitY=0.5;exitDx=0;exitDy=0;entryX=1;entryY=0.5;entryDx=0;entryDy=0;fillColor=#0050ef;strokeColor=#001DBC;" edge="1" parent="1">
          <mxGeometry width="50" height="50" relative="1" as="geometry">
            <mxPoint x="246" y="975" as="sourcePoint" />
            <mxPoint x="481" y="975" as="targetPoint" />
          </mxGeometry>
        </mxCell>
        <mxCell id="NuxejTGCEdP42fsOLrKP-49" value="SERVER CMS" style="text;html=1;resizable=0;autosize=1;align=center;verticalAlign=middle;points=[];fillColor=none;strokeColor=none;rounded=0;" vertex="1" parent="1">
          <mxGeometry x="433.5" y="880" width="90" height="20" as="geometry" />
        </mxCell>
        <mxCell id="NuxejTGCEdP42fsOLrKP-50" value="" style="rounded=0;whiteSpace=wrap;html=1;" vertex="1" parent="1">
          <mxGeometry x="726" y="920" width="5" height="880" as="geometry" />
        </mxCell>
        <mxCell id="NuxejTGCEdP42fsOLrKP-51" value="DB" style="text;html=1;resizable=0;autosize=1;align=center;verticalAlign=middle;points=[];fillColor=none;strokeColor=none;rounded=0;" vertex="1" parent="1">
          <mxGeometry x="713.5" y="880" width="30" height="20" as="geometry" />
        </mxCell>
        <mxCell id="NuxejTGCEdP42fsOLrKP-52" value="CMS Client" style="text;html=1;resizable=0;autosize=1;align=center;verticalAlign=middle;points=[];fillColor=none;strokeColor=none;rounded=0;" vertex="1" parent="1">
          <mxGeometry x="203.5" y="880" width="80" height="20" as="geometry" />
        </mxCell>
        <mxCell id="NuxejTGCEdP42fsOLrKP-54" value="Campaign A infomation" style="text;html=1;resizable=0;autosize=1;align=left;verticalAlign=middle;points=[];fillColor=none;strokeColor=none;rounded=0;" vertex="1" parent="1">
          <mxGeometry x="312" y="953" width="140" height="20" as="geometry" />
        </mxCell>
        <mxCell id="NuxejTGCEdP42fsOLrKP-59" value="" style="rounded=0;whiteSpace=wrap;html=1;" vertex="1" parent="1">
          <mxGeometry x="908.5" y="920" width="5" height="880" as="geometry" />
        </mxCell>
        <mxCell id="NuxejTGCEdP42fsOLrKP-60" value="CDN vega" style="text;html=1;resizable=0;autosize=1;align=center;verticalAlign=middle;points=[];fillColor=none;strokeColor=none;rounded=0;" vertex="1" parent="1">
          <mxGeometry x="876" y="880" width="70" height="20" as="geometry" />
        </mxCell>
        <mxCell id="NuxejTGCEdP42fsOLrKP-68" value="View ++" style="text;html=1;resizable=0;autosize=1;align=left;verticalAlign=middle;points=[];fillColor=none;strokeColor=none;rounded=0;" vertex="1" parent="1">
          <mxGeometry x="480" y="250" width="60" height="20" as="geometry" />
        </mxCell>
        <mxCell id="NuxejTGCEdP42fsOLrKP-69" value="/template/template1.html" style="text;html=1;resizable=0;autosize=1;align=center;verticalAlign=middle;points=[];fillColor=none;strokeColor=none;rounded=0;" vertex="1" parent="1">
          <mxGeometry x="920" y="330" width="150" height="20" as="geometry" />
        </mxCell>
        <mxCell id="NuxejTGCEdP42fsOLrKP-70" value="/assets/ads1.jpg" style="text;html=1;resizable=0;autosize=1;align=center;verticalAlign=middle;points=[];fillColor=none;strokeColor=none;rounded=0;" vertex="1" parent="1">
          <mxGeometry x="920" y="360" width="100" height="20" as="geometry" />
        </mxCell>
        <mxCell id="NuxejTGCEdP42fsOLrKP-71" value="href = redirectUrl" style="text;html=1;strokeColor=none;fillColor=none;align=center;verticalAlign=middle;whiteSpace=wrap;rounded=0;" vertex="1" parent="1">
          <mxGeometry x="110" y="420" width="130" height="20" as="geometry" />
        </mxCell>
        <mxCell id="NuxejTGCEdP42fsOLrKP-73" value="" style="endArrow=classic;html=1;exitX=1;exitY=0.5;exitDx=0;exitDy=0;entryX=1;entryY=0.5;entryDx=0;entryDy=0;fillColor=#0050ef;strokeColor=#001DBC;" edge="1" parent="1">
          <mxGeometry width="50" height="50" relative="1" as="geometry">
            <mxPoint x="486" y="975" as="sourcePoint" />
            <mxPoint x="721" y="975" as="targetPoint" />
          </mxGeometry>
        </mxCell>
        <mxCell id="NuxejTGCEdP42fsOLrKP-74" value="Campaign A infomation" style="text;html=1;resizable=0;autosize=1;align=left;verticalAlign=middle;points=[];fillColor=none;strokeColor=none;rounded=0;" vertex="1" parent="1">
          <mxGeometry x="552" y="953" width="140" height="20" as="geometry" />
        </mxCell>
        <mxCell id="NuxejTGCEdP42fsOLrKP-76" value="" style="endArrow=classic;html=1;entryX=1;entryY=0.5;entryDx=0;entryDy=0;fillColor=#0050ef;strokeColor=#001DBC;" edge="1" parent="1">
          <mxGeometry width="50" height="50" relative="1" as="geometry">
            <mxPoint x="471" y="1010" as="sourcePoint" />
            <mxPoint x="246" y="1010" as="targetPoint" />
          </mxGeometry>
        </mxCell>
        <mxCell id="NuxejTGCEdP42fsOLrKP-78" value="" style="endArrow=classic;html=1;entryX=1;entryY=0.5;entryDx=0;entryDy=0;fillColor=#0050ef;strokeColor=#001DBC;" edge="1" parent="1">
          <mxGeometry width="50" height="50" relative="1" as="geometry">
            <mxPoint x="716" y="1010" as="sourcePoint" />
            <mxPoint x="486" y="1010" as="targetPoint" />
          </mxGeometry>
        </mxCell>
        <mxCell id="NuxejTGCEdP42fsOLrKP-80" value="Campaign A infomation" style="text;html=1;resizable=0;autosize=1;align=left;verticalAlign=middle;points=[];fillColor=none;strokeColor=none;rounded=0;" vertex="1" parent="1">
          <mxGeometry x="546" y="1010" width="140" height="20" as="geometry" />
        </mxCell>
        <mxCell id="NuxejTGCEdP42fsOLrKP-81" value="Campaign A infomation" style="text;html=1;resizable=0;autosize=1;align=left;verticalAlign=middle;points=[];fillColor=none;strokeColor=none;rounded=0;" vertex="1" parent="1">
          <mxGeometry x="303.5" y="1010" width="140" height="20" as="geometry" />
        </mxCell>
        <mxCell id="NuxejTGCEdP42fsOLrKP-82" value="" style="endArrow=classic;html=1;fillColor=#0050ef;strokeColor=#001DBC;" edge="1" parent="1">
          <mxGeometry width="50" height="50" relative="1" as="geometry">
            <mxPoint x="106" y="1119" as="sourcePoint" />
            <mxPoint x="238.5" y="1118.5" as="targetPoint" />
          </mxGeometry>
        </mxCell>
        <mxCell id="NuxejTGCEdP42fsOLrKP-83" value="Create ads in campaign A&lt;br&gt;with template 1" style="text;html=1;resizable=0;autosize=1;align=center;verticalAlign=middle;points=[];fillColor=none;strokeColor=none;rounded=0;" vertex="1" parent="1">
          <mxGeometry x="80" y="1081" width="150" height="30" as="geometry" />
        </mxCell>
        <mxCell id="NuxejTGCEdP42fsOLrKP-87" value="/template/template1.html" style="text;html=1;resizable=0;autosize=1;align=center;verticalAlign=middle;points=[];fillColor=none;strokeColor=none;rounded=0;" vertex="1" parent="1">
          <mxGeometry x="908.5" y="1187" width="150" height="20" as="geometry" />
        </mxCell>
        <mxCell id="NuxejTGCEdP42fsOLrKP-88" value="" style="endArrow=classic;html=1;entryX=1;entryY=0.5;entryDx=0;entryDy=0;fillColor=#0050ef;strokeColor=#001DBC;" edge="1" parent="1">
          <mxGeometry width="50" height="50" relative="1" as="geometry">
            <mxPoint x="906" y="1210" as="sourcePoint" />
            <mxPoint x="246" y="1210" as="targetPoint" />
          </mxGeometry>
        </mxCell>
        <mxCell id="NuxejTGCEdP42fsOLrKP-89" value="HTML + assets" style="text;html=1;resizable=0;autosize=1;align=left;verticalAlign=middle;points=[];fillColor=none;strokeColor=none;rounded=0;" vertex="1" parent="1">
          <mxGeometry x="288.5" y="1190" width="100" height="20" as="geometry" />
        </mxCell>
        <mxCell id="NuxejTGCEdP42fsOLrKP-90" value="/assets/sample.jpg" style="text;html=1;resizable=0;autosize=1;align=center;verticalAlign=middle;points=[];fillColor=none;strokeColor=none;rounded=0;" vertex="1" parent="1">
          <mxGeometry x="911.5" y="1207" width="110" height="20" as="geometry" />
        </mxCell>
        <mxCell id="NuxejTGCEdP42fsOLrKP-91" value="" style="whiteSpace=wrap;html=1;aspect=fixed;" vertex="1" parent="1">
          <mxGeometry x="170" y="1167" width="60" height="60" as="geometry" />
        </mxCell>
        <mxCell id="NuxejTGCEdP42fsOLrKP-92" value="Sample" style="text;html=1;resizable=0;autosize=1;align=center;verticalAlign=middle;points=[];fillColor=none;strokeColor=none;rounded=0;" vertex="1" parent="1">
          <mxGeometry x="170" y="1227" width="60" height="20" as="geometry" />
        </mxCell>
        <mxCell id="NuxejTGCEdP42fsOLrKP-93" value="Select local assets" style="text;html=1;resizable=0;autosize=1;align=center;verticalAlign=middle;points=[];fillColor=none;strokeColor=none;rounded=0;" vertex="1" parent="1">
          <mxGeometry x="116" y="1275" width="110" height="20" as="geometry" />
        </mxCell>
        <mxCell id="NuxejTGCEdP42fsOLrKP-94" value="" style="endArrow=classic;html=1;fillColor=#0050ef;strokeColor=#001DBC;" edge="1" parent="1">
          <mxGeometry width="50" height="50" relative="1" as="geometry">
            <mxPoint x="103.5" y="1300.5" as="sourcePoint" />
            <mxPoint x="236" y="1300" as="targetPoint" />
          </mxGeometry>
        </mxCell>
        <mxCell id="NuxejTGCEdP42fsOLrKP-97" value="Upload" style="text;html=1;resizable=0;autosize=1;align=center;verticalAlign=middle;points=[];fillColor=none;strokeColor=none;rounded=0;" vertex="1" parent="1">
          <mxGeometry x="292.25" y="1275" width="50" height="20" as="geometry" />
        </mxCell>
        <mxCell id="NuxejTGCEdP42fsOLrKP-98" value="" style="endArrow=classic;html=1;fillColor=#0050ef;strokeColor=#001DBC;" edge="1" parent="1">
          <mxGeometry width="50" height="50" relative="1" as="geometry">
            <mxPoint x="249.75" y="1300.5" as="sourcePoint" />
            <mxPoint x="476" y="1300" as="targetPoint" />
          </mxGeometry>
        </mxCell>
        <mxCell id="NuxejTGCEdP42fsOLrKP-101" value="" style="whiteSpace=wrap;html=1;aspect=fixed;" vertex="1" parent="1">
          <mxGeometry x="170" y="1310" width="60" height="60" as="geometry" />
        </mxCell>
        <mxCell id="NuxejTGCEdP42fsOLrKP-102" value="Preview" style="text;html=1;resizable=0;autosize=1;align=center;verticalAlign=middle;points=[];fillColor=none;strokeColor=none;rounded=0;" vertex="1" parent="1">
          <mxGeometry x="170" y="1370" width="60" height="20" as="geometry" />
        </mxCell>
        <mxCell id="NuxejTGCEdP42fsOLrKP-105" value="" style="endArrow=classic;html=1;fillColor=#0050ef;strokeColor=#001DBC;" edge="1" parent="1">
          <mxGeometry width="50" height="50" relative="1" as="geometry">
            <mxPoint x="909.5" y="1330" as="sourcePoint" />
            <mxPoint x="486" y="1330" as="targetPoint" />
          </mxGeometry>
        </mxCell>
        <mxCell id="NuxejTGCEdP42fsOLrKP-106" value="New url" style="text;html=1;resizable=0;autosize=1;align=left;verticalAlign=middle;points=[];fillColor=none;strokeColor=none;rounded=0;" vertex="1" parent="1">
          <mxGeometry x="636" y="1310" width="60" height="20" as="geometry" />
        </mxCell>
        <mxCell id="NuxejTGCEdP42fsOLrKP-107" value="" style="endArrow=classic;html=1;entryX=1;entryY=0.5;entryDx=0;entryDy=0;fillColor=#0050ef;strokeColor=#001DBC;" edge="1" parent="1">
          <mxGeometry width="50" height="50" relative="1" as="geometry">
            <mxPoint x="909.5" y="1360" as="sourcePoint" />
            <mxPoint x="249.5" y="1360" as="targetPoint" />
          </mxGeometry>
        </mxCell>
        <mxCell id="NuxejTGCEdP42fsOLrKP-108" value="HTML + new assets" style="text;html=1;resizable=0;autosize=1;align=left;verticalAlign=middle;points=[];fillColor=none;strokeColor=none;rounded=0;" vertex="1" parent="1">
          <mxGeometry x="292.25" y="1363" width="120" height="20" as="geometry" />
        </mxCell>
        <mxCell id="NuxejTGCEdP42fsOLrKP-109" value="/template/template1.html" style="text;html=1;resizable=0;autosize=1;align=center;verticalAlign=middle;points=[];fillColor=none;strokeColor=none;rounded=0;" vertex="1" parent="1">
          <mxGeometry x="918.5" y="1339" width="150" height="20" as="geometry" />
        </mxCell>
        <mxCell id="NuxejTGCEdP42fsOLrKP-110" value="/inventory/new.jpg" style="text;html=1;resizable=0;autosize=1;align=center;verticalAlign=middle;points=[];fillColor=none;strokeColor=none;rounded=0;" vertex="1" parent="1">
          <mxGeometry x="921.5" y="1355" width="110" height="20" as="geometry" />
        </mxCell>
        <mxCell id="NuxejTGCEdP42fsOLrKP-111" value="Save" style="text;html=1;resizable=0;autosize=1;align=center;verticalAlign=middle;points=[];fillColor=none;strokeColor=none;rounded=0;" vertex="1" parent="1">
          <mxGeometry x="152.25" y="1420" width="40" height="20" as="geometry" />
        </mxCell>
        <mxCell id="NuxejTGCEdP42fsOLrKP-112" value="" style="endArrow=classic;html=1;fillColor=#0050ef;strokeColor=#001DBC;" edge="1" parent="1">
          <mxGeometry width="50" height="50" relative="1" as="geometry">
            <mxPoint x="104.75" y="1445.5" as="sourcePoint" />
            <mxPoint x="237.25" y="1445" as="targetPoint" />
          </mxGeometry>
        </mxCell>
        <mxCell id="NuxejTGCEdP42fsOLrKP-113" value="" style="endArrow=classic;html=1;exitX=1;exitY=0.5;exitDx=0;exitDy=0;entryX=1;entryY=0.5;entryDx=0;entryDy=0;fillColor=#0050ef;strokeColor=#001DBC;" edge="1" parent="1">
          <mxGeometry width="50" height="50" relative="1" as="geometry">
            <mxPoint x="246" y="1118" as="sourcePoint" />
            <mxPoint x="481" y="1118" as="targetPoint" />
          </mxGeometry>
        </mxCell>
        <mxCell id="NuxejTGCEdP42fsOLrKP-114" value="Get template1 Url with sample assets" style="text;html=1;resizable=0;autosize=1;align=left;verticalAlign=middle;points=[];fillColor=none;strokeColor=none;rounded=0;" vertex="1" parent="1">
          <mxGeometry x="268.5" y="1096" width="210" height="20" as="geometry" />
        </mxCell>
        <mxCell id="NuxejTGCEdP42fsOLrKP-115" value="" style="endArrow=classic;html=1;entryX=1;entryY=0.5;entryDx=0;entryDy=0;fillColor=#0050ef;strokeColor=#001DBC;" edge="1" parent="1">
          <mxGeometry width="50" height="50" relative="1" as="geometry">
            <mxPoint x="471" y="1136" as="sourcePoint" />
            <mxPoint x="246" y="1136" as="targetPoint" />
          </mxGeometry>
        </mxCell>
        <mxCell id="NuxejTGCEdP42fsOLrKP-116" value="Template URL" style="text;html=1;resizable=0;autosize=1;align=left;verticalAlign=middle;points=[];fillColor=none;strokeColor=none;rounded=0;" vertex="1" parent="1">
          <mxGeometry x="303.5" y="1136" width="90" height="20" as="geometry" />
        </mxCell>
        <mxCell id="NuxejTGCEdP42fsOLrKP-123" value="" style="edgeStyle=orthogonalEdgeStyle;rounded=0;orthogonalLoop=1;jettySize=auto;html=1;" edge="1" parent="1" source="NuxejTGCEdP42fsOLrKP-119" target="NuxejTGCEdP42fsOLrKP-122">
          <mxGeometry relative="1" as="geometry" />
        </mxCell>
        <mxCell id="NuxejTGCEdP42fsOLrKP-119" value="/inventory/new.jpg" style="text;html=1;resizable=0;autosize=1;align=center;verticalAlign=middle;points=[];fillColor=none;strokeColor=none;rounded=0;" vertex="1" parent="1">
          <mxGeometry x="921.5" y="1420" width="110" height="20" as="geometry" />
        </mxCell>
        <mxCell id="NuxejTGCEdP42fsOLrKP-122" value="/assets/new.jpg" style="text;html=1;resizable=0;autosize=1;align=center;verticalAlign=middle;points=[];fillColor=none;strokeColor=none;rounded=0;" vertex="1" parent="1">
          <mxGeometry x="1116.5" y="1420" width="100" height="20" as="geometry" />
        </mxCell>
        <mxCell id="NuxejTGCEdP42fsOLrKP-126" value="" style="endArrow=classic;html=1;fillColor=#0050ef;strokeColor=#001DBC;" edge="1" parent="1">
          <mxGeometry width="50" height="50" relative="1" as="geometry">
            <mxPoint x="489.75" y="1300.5" as="sourcePoint" />
            <mxPoint x="906" y="1300" as="targetPoint" />
          </mxGeometry>
        </mxCell>
        <mxCell id="NuxejTGCEdP42fsOLrKP-127" value="Upload" style="text;html=1;resizable=0;autosize=1;align=center;verticalAlign=middle;points=[];fillColor=none;strokeColor=none;rounded=0;" vertex="1" parent="1">
          <mxGeometry x="616" y="1275" width="50" height="20" as="geometry" />
        </mxCell>
        <mxCell id="NuxejTGCEdP42fsOLrKP-130" value="" style="endArrow=classic;html=1;entryX=1;entryY=0.5;entryDx=0;entryDy=0;fillColor=#0050ef;strokeColor=#001DBC;" edge="1" parent="1">
          <mxGeometry width="50" height="50" relative="1" as="geometry">
            <mxPoint x="476" y="1330" as="sourcePoint" />
            <mxPoint x="251" y="1330" as="targetPoint" />
          </mxGeometry>
        </mxCell>
        <mxCell id="NuxejTGCEdP42fsOLrKP-131" value="New url" style="text;html=1;resizable=0;autosize=1;align=left;verticalAlign=middle;points=[];fillColor=none;strokeColor=none;rounded=0;" vertex="1" parent="1">
          <mxGeometry x="308.5" y="1330" width="60" height="20" as="geometry" />
        </mxCell>
        <mxCell id="NuxejTGCEdP42fsOLrKP-132" value="Save" style="text;html=1;resizable=0;autosize=1;align=center;verticalAlign=middle;points=[];fillColor=none;strokeColor=none;rounded=0;" vertex="1" parent="1">
          <mxGeometry x="293.5" y="1420" width="40" height="20" as="geometry" />
        </mxCell>
        <mxCell id="NuxejTGCEdP42fsOLrKP-133" value="" style="endArrow=classic;html=1;fillColor=#0050ef;strokeColor=#001DBC;" edge="1" parent="1">
          <mxGeometry width="50" height="50" relative="1" as="geometry">
            <mxPoint x="246" y="1445.5" as="sourcePoint" />
            <mxPoint x="472.25" y="1445" as="targetPoint" />
          </mxGeometry>
        </mxCell>
        <mxCell id="NuxejTGCEdP42fsOLrKP-134" value="" style="endArrow=classic;html=1;fillColor=#0050ef;strokeColor=#001DBC;" edge="1" parent="1">
          <mxGeometry width="50" height="50" relative="1" as="geometry">
            <mxPoint x="905.75" y="1475" as="sourcePoint" />
            <mxPoint x="482.25" y="1475" as="targetPoint" />
          </mxGeometry>
        </mxCell>
        <mxCell id="NuxejTGCEdP42fsOLrKP-135" value="Success" style="text;html=1;resizable=0;autosize=1;align=left;verticalAlign=middle;points=[];fillColor=none;strokeColor=none;rounded=0;" vertex="1" parent="1">
          <mxGeometry x="632.25" y="1455" width="60" height="20" as="geometry" />
        </mxCell>
        <mxCell id="NuxejTGCEdP42fsOLrKP-136" value="Move to assest folder" style="text;html=1;resizable=0;autosize=1;align=center;verticalAlign=middle;points=[];fillColor=none;strokeColor=none;rounded=0;" vertex="1" parent="1">
          <mxGeometry x="572.25" y="1420" width="130" height="20" as="geometry" />
        </mxCell>
        <mxCell id="NuxejTGCEdP42fsOLrKP-137" value="" style="endArrow=classic;html=1;entryX=1;entryY=0.5;entryDx=0;entryDy=0;fillColor=#0050ef;strokeColor=#001DBC;" edge="1" parent="1">
          <mxGeometry width="50" height="50" relative="1" as="geometry">
            <mxPoint x="472.25" y="1475" as="sourcePoint" />
            <mxPoint x="247.25" y="1475" as="targetPoint" />
          </mxGeometry>
        </mxCell>
        <mxCell id="NuxejTGCEdP42fsOLrKP-138" value="Success" style="text;html=1;resizable=0;autosize=1;align=left;verticalAlign=middle;points=[];fillColor=none;strokeColor=none;rounded=0;" vertex="1" parent="1">
          <mxGeometry x="304.75" y="1475" width="60" height="20" as="geometry" />
        </mxCell>
        <mxCell id="NuxejTGCEdP42fsOLrKP-139" value="" style="endArrow=classic;html=1;fillColor=#0050ef;strokeColor=#001DBC;" edge="1" parent="1">
          <mxGeometry width="50" height="50" relative="1" as="geometry">
            <mxPoint x="486" y="1445.5" as="sourcePoint" />
            <mxPoint x="902.25" y="1445" as="targetPoint" />
          </mxGeometry>
        </mxCell>
        <mxCell id="NuxejTGCEdP42fsOLrKP-140" value="Success" style="text;html=1;resizable=0;autosize=1;align=center;verticalAlign=middle;points=[];fillColor=none;strokeColor=none;rounded=0;" vertex="1" parent="1">
          <mxGeometry x="161" y="1470" width="60" height="20" as="geometry" />
        </mxCell>
        <mxCell id="NuxejTGCEdP42fsOLrKP-141" value="Cancel" style="text;html=1;resizable=0;autosize=1;align=center;verticalAlign=middle;points=[];fillColor=none;strokeColor=none;rounded=0;" vertex="1" parent="1">
          <mxGeometry x="147.25" y="1510" width="50" height="20" as="geometry" />
        </mxCell>
        <mxCell id="NuxejTGCEdP42fsOLrKP-142" value="" style="endArrow=classic;html=1;fillColor=#0050ef;strokeColor=#001DBC;" edge="1" parent="1">
          <mxGeometry width="50" height="50" relative="1" as="geometry">
            <mxPoint x="104.75" y="1535.5" as="sourcePoint" />
            <mxPoint x="237.25" y="1535" as="targetPoint" />
          </mxGeometry>
        </mxCell>
        <mxCell id="NuxejTGCEdP42fsOLrKP-143" value="" style="edgeStyle=orthogonalEdgeStyle;rounded=0;orthogonalLoop=1;jettySize=auto;html=1;" edge="1" parent="1" source="NuxejTGCEdP42fsOLrKP-144" target="NuxejTGCEdP42fsOLrKP-145">
          <mxGeometry relative="1" as="geometry" />
        </mxCell>
        <mxCell id="NuxejTGCEdP42fsOLrKP-144" value="/inventory/new.jpg" style="text;html=1;resizable=0;autosize=1;align=center;verticalAlign=middle;points=[];fillColor=none;strokeColor=none;rounded=0;" vertex="1" parent="1">
          <mxGeometry x="921.5" y="1510" width="110" height="20" as="geometry" />
        </mxCell>
        <mxCell id="NuxejTGCEdP42fsOLrKP-145" value="Trash" style="text;html=1;resizable=0;autosize=1;align=center;verticalAlign=middle;points=[];fillColor=none;strokeColor=none;rounded=0;" vertex="1" parent="1">
          <mxGeometry x="1141.5" y="1510" width="50" height="20" as="geometry" />
        </mxCell>
        <mxCell id="NuxejTGCEdP42fsOLrKP-146" value="Cancel" style="text;html=1;resizable=0;autosize=1;align=center;verticalAlign=middle;points=[];fillColor=none;strokeColor=none;rounded=0;" vertex="1" parent="1">
          <mxGeometry x="288.5" y="1510" width="50" height="20" as="geometry" />
        </mxCell>
        <mxCell id="NuxejTGCEdP42fsOLrKP-147" value="" style="endArrow=classic;html=1;fillColor=#0050ef;strokeColor=#001DBC;" edge="1" parent="1">
          <mxGeometry width="50" height="50" relative="1" as="geometry">
            <mxPoint x="246" y="1535.5" as="sourcePoint" />
            <mxPoint x="472.25" y="1535" as="targetPoint" />
          </mxGeometry>
        </mxCell>
        <mxCell id="NuxejTGCEdP42fsOLrKP-148" value="" style="endArrow=classic;html=1;fillColor=#0050ef;strokeColor=#001DBC;" edge="1" parent="1">
          <mxGeometry width="50" height="50" relative="1" as="geometry">
            <mxPoint x="905.75" y="1565" as="sourcePoint" />
            <mxPoint x="482.25" y="1565" as="targetPoint" />
          </mxGeometry>
        </mxCell>
        <mxCell id="NuxejTGCEdP42fsOLrKP-149" value="Success" style="text;html=1;resizable=0;autosize=1;align=left;verticalAlign=middle;points=[];fillColor=none;strokeColor=none;rounded=0;" vertex="1" parent="1">
          <mxGeometry x="632.25" y="1545" width="60" height="20" as="geometry" />
        </mxCell>
        <mxCell id="NuxejTGCEdP42fsOLrKP-150" value="Delete from inventory" style="text;html=1;resizable=0;autosize=1;align=center;verticalAlign=middle;points=[];fillColor=none;strokeColor=none;rounded=0;" vertex="1" parent="1">
          <mxGeometry x="572.25" y="1510" width="130" height="20" as="geometry" />
        </mxCell>
        <mxCell id="NuxejTGCEdP42fsOLrKP-151" value="" style="endArrow=classic;html=1;entryX=1;entryY=0.5;entryDx=0;entryDy=0;fillColor=#0050ef;strokeColor=#001DBC;" edge="1" parent="1">
          <mxGeometry width="50" height="50" relative="1" as="geometry">
            <mxPoint x="472.25" y="1565" as="sourcePoint" />
            <mxPoint x="247.25" y="1565" as="targetPoint" />
          </mxGeometry>
        </mxCell>
        <mxCell id="NuxejTGCEdP42fsOLrKP-152" value="Success" style="text;html=1;resizable=0;autosize=1;align=left;verticalAlign=middle;points=[];fillColor=none;strokeColor=none;rounded=0;" vertex="1" parent="1">
          <mxGeometry x="304.75" y="1565" width="60" height="20" as="geometry" />
        </mxCell>
        <mxCell id="NuxejTGCEdP42fsOLrKP-153" value="" style="endArrow=classic;html=1;fillColor=#0050ef;strokeColor=#001DBC;" edge="1" parent="1">
          <mxGeometry width="50" height="50" relative="1" as="geometry">
            <mxPoint x="486" y="1535.5" as="sourcePoint" />
            <mxPoint x="902.25" y="1535" as="targetPoint" />
          </mxGeometry>
        </mxCell>
        <mxCell id="NuxejTGCEdP42fsOLrKP-154" value="Success" style="text;html=1;resizable=0;autosize=1;align=center;verticalAlign=middle;points=[];fillColor=none;strokeColor=none;rounded=0;" vertex="1" parent="1">
          <mxGeometry x="161" y="1560" width="60" height="20" as="geometry" />
        </mxCell>
        <mxCell id="NuxejTGCEdP42fsOLrKP-156" value="Select another assets" style="text;html=1;resizable=0;autosize=1;align=center;verticalAlign=middle;points=[];fillColor=none;strokeColor=none;rounded=0;" vertex="1" parent="1">
          <mxGeometry x="106" y="1630" width="130" height="20" as="geometry" />
        </mxCell>
        <mxCell id="NuxejTGCEdP42fsOLrKP-157" value="" style="endArrow=classic;html=1;fillColor=#0050ef;strokeColor=#001DBC;" edge="1" parent="1">
          <mxGeometry width="50" height="50" relative="1" as="geometry">
            <mxPoint x="103.5" y="1655.5" as="sourcePoint" />
            <mxPoint x="236" y="1655" as="targetPoint" />
          </mxGeometry>
        </mxCell>
        <mxCell id="NuxejTGCEdP42fsOLrKP-158" value="Upload" style="text;html=1;resizable=0;autosize=1;align=center;verticalAlign=middle;points=[];fillColor=none;strokeColor=none;rounded=0;" vertex="1" parent="1">
          <mxGeometry x="292.25" y="1630" width="50" height="20" as="geometry" />
        </mxCell>
        <mxCell id="NuxejTGCEdP42fsOLrKP-159" value="" style="endArrow=classic;html=1;fillColor=#0050ef;strokeColor=#001DBC;" edge="1" parent="1">
          <mxGeometry width="50" height="50" relative="1" as="geometry">
            <mxPoint x="249.75" y="1655.5" as="sourcePoint" />
            <mxPoint x="476" y="1655" as="targetPoint" />
          </mxGeometry>
        </mxCell>
        <mxCell id="NuxejTGCEdP42fsOLrKP-160" value="" style="whiteSpace=wrap;html=1;aspect=fixed;" vertex="1" parent="1">
          <mxGeometry x="170" y="1665" width="60" height="60" as="geometry" />
        </mxCell>
        <mxCell id="NuxejTGCEdP42fsOLrKP-161" value="Preview" style="text;html=1;resizable=0;autosize=1;align=center;verticalAlign=middle;points=[];fillColor=none;strokeColor=none;rounded=0;" vertex="1" parent="1">
          <mxGeometry x="170" y="1725" width="60" height="20" as="geometry" />
        </mxCell>
        <mxCell id="NuxejTGCEdP42fsOLrKP-162" value="" style="endArrow=classic;html=1;fillColor=#0050ef;strokeColor=#001DBC;" edge="1" parent="1">
          <mxGeometry width="50" height="50" relative="1" as="geometry">
            <mxPoint x="909.5" y="1685" as="sourcePoint" />
            <mxPoint x="486" y="1685" as="targetPoint" />
          </mxGeometry>
        </mxCell>
        <mxCell id="NuxejTGCEdP42fsOLrKP-163" value="New url" style="text;html=1;resizable=0;autosize=1;align=left;verticalAlign=middle;points=[];fillColor=none;strokeColor=none;rounded=0;" vertex="1" parent="1">
          <mxGeometry x="636" y="1665" width="60" height="20" as="geometry" />
        </mxCell>
        <mxCell id="NuxejTGCEdP42fsOLrKP-164" value="" style="endArrow=classic;html=1;entryX=1;entryY=0.5;entryDx=0;entryDy=0;fillColor=#0050ef;strokeColor=#001DBC;" edge="1" parent="1">
          <mxGeometry width="50" height="50" relative="1" as="geometry">
            <mxPoint x="909.5" y="1715" as="sourcePoint" />
            <mxPoint x="249.5" y="1715" as="targetPoint" />
          </mxGeometry>
        </mxCell>
        <mxCell id="NuxejTGCEdP42fsOLrKP-165" value="HTML + new assets" style="text;html=1;resizable=0;autosize=1;align=left;verticalAlign=middle;points=[];fillColor=none;strokeColor=none;rounded=0;" vertex="1" parent="1">
          <mxGeometry x="292.25" y="1718" width="120" height="20" as="geometry" />
        </mxCell>
        <mxCell id="NuxejTGCEdP42fsOLrKP-166" value="/template/template1.html" style="text;html=1;resizable=0;autosize=1;align=center;verticalAlign=middle;points=[];fillColor=none;strokeColor=none;rounded=0;" vertex="1" parent="1">
          <mxGeometry x="918.5" y="1694" width="150" height="20" as="geometry" />
        </mxCell>
        <mxCell id="NuxejTGCEdP42fsOLrKP-167" value="/inventory/new.jpg" style="text;html=1;resizable=0;autosize=1;align=center;verticalAlign=middle;points=[];fillColor=none;strokeColor=none;rounded=0;" vertex="1" parent="1">
          <mxGeometry x="921.5" y="1710" width="110" height="20" as="geometry" />
        </mxCell>
        <mxCell id="NuxejTGCEdP42fsOLrKP-168" value="" style="endArrow=classic;html=1;fillColor=#0050ef;strokeColor=#001DBC;" edge="1" parent="1">
          <mxGeometry width="50" height="50" relative="1" as="geometry">
            <mxPoint x="489.75" y="1655.5" as="sourcePoint" />
            <mxPoint x="906" y="1655" as="targetPoint" />
          </mxGeometry>
        </mxCell>
        <mxCell id="NuxejTGCEdP42fsOLrKP-169" value="Upload new asset and&lt;br&gt;remove current asset" style="text;html=1;resizable=0;autosize=1;align=center;verticalAlign=middle;points=[];fillColor=none;strokeColor=none;rounded=0;" vertex="1" parent="1">
          <mxGeometry x="536" y="1625" width="130" height="30" as="geometry" />
        </mxCell>
        <mxCell id="NuxejTGCEdP42fsOLrKP-170" value="" style="endArrow=classic;html=1;entryX=1;entryY=0.5;entryDx=0;entryDy=0;fillColor=#0050ef;strokeColor=#001DBC;" edge="1" parent="1">
          <mxGeometry width="50" height="50" relative="1" as="geometry">
            <mxPoint x="476" y="1685" as="sourcePoint" />
            <mxPoint x="251" y="1685" as="targetPoint" />
          </mxGeometry>
        </mxCell>
        <mxCell id="NuxejTGCEdP42fsOLrKP-171" value="New url" style="text;html=1;resizable=0;autosize=1;align=left;verticalAlign=middle;points=[];fillColor=none;strokeColor=none;rounded=0;" vertex="1" parent="1">
          <mxGeometry x="308.5" y="1685" width="60" height="20" as="geometry" />
        </mxCell>
        <mxCell id="NuxejTGCEdP42fsOLrKP-222" value="" style="whiteSpace=wrap;html=1;aspect=fixed;" vertex="1" parent="1">
          <mxGeometry x="134" y="540" width="80" height="80" as="geometry" />
        </mxCell>
        <mxCell id="NuxejTGCEdP42fsOLrKP-223" value="IFrame" style="text;html=1;strokeColor=none;fillColor=none;align=center;verticalAlign=middle;whiteSpace=wrap;rounded=0;" vertex="1" parent="1">
          <mxGeometry x="134" y="520" width="40" height="20" as="geometry" />
        </mxCell>
        <mxCell id="NuxejTGCEdP42fsOLrKP-227" value="href = destinationUrl" style="text;html=1;strokeColor=none;fillColor=none;align=center;verticalAlign=middle;whiteSpace=wrap;rounded=0;" vertex="1" parent="1">
          <mxGeometry x="109" y="630" width="130" height="20" as="geometry" />
        </mxCell>
        <mxCell id="NuxejTGCEdP42fsOLrKP-228" value="" style="endArrow=classic;html=1;exitX=1;exitY=0.5;exitDx=0;exitDy=0;fillColor=#0050ef;strokeColor=#001DBC;" edge="1" parent="1">
          <mxGeometry width="50" height="50" relative="1" as="geometry">
            <mxPoint x="239" y="553" as="sourcePoint" />
            <mxPoint x="1090" y="553" as="targetPoint" />
          </mxGeometry>
        </mxCell>
        <mxCell id="NuxejTGCEdP42fsOLrKP-229" value="RidirectURL + user Id + infomation" style="text;html=1;resizable=0;autosize=1;align=left;verticalAlign=middle;points=[];fillColor=none;strokeColor=none;rounded=0;" vertex="1" parent="1">
          <mxGeometry x="260" y="528" width="200" height="20" as="geometry" />
        </mxCell>
        <mxCell id="NuxejTGCEdP42fsOLrKP-230" value="/ridirect.html" style="text;html=1;resizable=0;autosize=1;align=center;verticalAlign=middle;points=[];fillColor=none;strokeColor=none;rounded=0;" vertex="1" parent="1">
          <mxGeometry x="913.5" y="570" width="80" height="20" as="geometry" />
        </mxCell>
        <mxCell id="NuxejTGCEdP42fsOLrKP-232" value="" style="rounded=0;whiteSpace=wrap;html=1;" vertex="1" parent="1">
          <mxGeometry x="1091" y="500" width="5" height="350" as="geometry" />
        </mxCell>
        <mxCell id="NuxejTGCEdP42fsOLrKP-233" value="Blank page" style="text;html=1;resizable=0;autosize=1;align=center;verticalAlign=middle;points=[];fillColor=none;strokeColor=none;rounded=0;" vertex="1" parent="1">
          <mxGeometry x="1063.5" y="470" width="80" height="20" as="geometry" />
        </mxCell>
        <mxCell id="NuxejTGCEdP42fsOLrKP-234" value="" style="endArrow=classic;html=1;entryX=1;entryY=0.5;entryDx=0;entryDy=0;fillColor=#0050ef;strokeColor=#001DBC;" edge="1" parent="1">
          <mxGeometry width="50" height="50" relative="1" as="geometry">
            <mxPoint x="910" y="590" as="sourcePoint" />
            <mxPoint x="1087.5" y="590.3299999999999" as="targetPoint" />
          </mxGeometry>
        </mxCell>
        <mxCell id="NuxejTGCEdP42fsOLrKP-236" value="" style="endArrow=classic;html=1;entryX=1;entryY=0.5;entryDx=0;entryDy=0;fillColor=#0050ef;strokeColor=#001DBC;" edge="1" parent="1">
          <mxGeometry width="50" height="50" relative="1" as="geometry">
            <mxPoint x="1084" y="630" as="sourcePoint" />
            <mxPoint x="480" y="630" as="targetPoint" />
          </mxGeometry>
        </mxCell>
        <mxCell id="NuxejTGCEdP42fsOLrKP-237" value="Logic count" style="text;html=1;resizable=0;autosize=1;align=center;verticalAlign=middle;points=[];fillColor=none;strokeColor=none;rounded=0;" vertex="1" parent="1">
          <mxGeometry x="738.5" y="610" width="80" height="20" as="geometry" />
        </mxCell>
        <mxCell id="NuxejTGCEdP42fsOLrKP-238" value="Success" style="text;html=1;resizable=0;autosize=1;align=center;verticalAlign=middle;points=[];fillColor=none;strokeColor=none;rounded=0;" vertex="1" parent="1">
          <mxGeometry x="748.5" y="640" width="60" height="20" as="geometry" />
        </mxCell>
        <mxCell id="NuxejTGCEdP42fsOLrKP-239" value="" style="endArrow=classic;html=1;fillColor=#0050ef;strokeColor=#001DBC;" edge="1" parent="1">
          <mxGeometry width="50" height="50" relative="1" as="geometry">
            <mxPoint x="478.5" y="660" as="sourcePoint" />
            <mxPoint x="1090" y="660" as="targetPoint" />
          </mxGeometry>
        </mxCell>
        <mxCell id="NuxejTGCEdP42fsOLrKP-240" value="" style="rounded=0;whiteSpace=wrap;html=1;" vertex="1" parent="1">
          <mxGeometry x="1202.5" y="500" width="5" height="350" as="geometry" />
        </mxCell>
        <mxCell id="NuxejTGCEdP42fsOLrKP-241" value="Destination page" style="text;html=1;resizable=0;autosize=1;align=center;verticalAlign=middle;points=[];fillColor=none;strokeColor=none;rounded=0;" vertex="1" parent="1">
          <mxGeometry x="1160" y="470" width="110" height="20" as="geometry" />
        </mxCell>
        <mxCell id="NuxejTGCEdP42fsOLrKP-244" value="" style="endArrow=classic;html=1;entryX=-0.064;entryY=0.451;entryDx=0;entryDy=0;fillColor=#0050ef;strokeColor=#001DBC;entryPerimeter=0;" edge="1" parent="1">
          <mxGeometry width="50" height="50" relative="1" as="geometry">
            <mxPoint x="1104" y="660.67" as="sourcePoint" />
            <mxPoint x="1202.1799999999998" y="659.8500000000001" as="targetPoint" />
          </mxGeometry>
        </mxCell>
        <mxCell id="NuxejTGCEdP42fsOLrKP-245" value="Redirect" style="text;html=1;resizable=0;autosize=1;align=center;verticalAlign=middle;points=[];fillColor=none;strokeColor=none;rounded=0;" vertex="1" parent="1">
          <mxGeometry x="1110" y="640" width="60" height="20" as="geometry" />
        </mxCell>
      </root>
    </mxGraphModel>
  </diagram>
</mxfile>
